inDegrees=yes
name=ik_S51_A03_T02
DataType=double
version=3
OpenSimVersion=4.3-2021-08-27-4bc7ad9
endheader
time	pelvis_tilt	pelvis_list	pelvis_rotation	pelvis_tx	pelvis_ty	pelvis_tz	hip_flexion_r	hip_adduction_r	hip_rotation_r	knee_angle_r	knee_angle_r_beta	ankle_angle_r	subtalar_angle_r	mtp_angle_r	hip_flexion_l	hip_adduction_l	hip_rotation_l	knee_angle_l	knee_angle_l_beta	ankle_angle_l	subtalar_angle_l	mtp_angle_l	lumbar_extension	lumbar_bending	lumbar_rotation	arm_flex_r	arm_add_r	arm_rot_r	elbow_flex_r	pro_sup_r	wrist_flex_r	wrist_dev_r	arm_flex_l	arm_add_l	arm_rot_l	elbow_flex_l	pro_sup_l	wrist_flex_l	wrist_dev_l
0	0	0	0	0	0.9399999999999999	0	0	0	0	0	0	0	0	0	0	0	0	0	0	0	0	0	0	0	0	0	0	0	0	89.99999999963507	0	0	0	0	0	0	89.99999999869995	0	0
0.02	-0.1037511522309491	0.3130128239047233	-76.30042811211248	0	0.9399999999999999	0	1.408843063538221	-1.186852060258464	-9.60939892932748	1.902357744769647	0.03320240619704428	0	0	0	3.334158729669058	-0.991344590366331	-2.057976782568596	-0.3725979686118736	-0.006503061338519679	0	0	0	0	0	0	1.713541117216226	-1.713541117216226	0.3047285275908584	8.424149704668126	89.69527148994396	0	0	1.713541117216226	-1.713541117216226	0.3047285275908584	8.424149704668126	89.6952714890661	0	0
0.04	-0.09555664343371117	0.2651290573395943	-76.27522738497694	0	0.9399999999999999	0	1.424234501398094	-1.207650819458781	-9.537702651473856	1.911467411665216	0.03336139987813189	0	0	0	3.334186558978309	-1.009405184539043	-2.040145442525817	-0.367225507120175	-0.006409294196552933	0	0	0	0	0	0	1.714727288225551	-1.714727288225551	0.3049598157179692	8.434450059542849	89.69504020183069	0	0	1.714727288225551	-1.714727288225551	0.3049598157179692	8.434450059542849	89.69504020095285	0	0
0.06	-0.09634293880626076	0.2790720197636466	-76.30053969182408	0	0.9399999999999999	0	1.451737976541925	-1.204332292560317	-9.52569450441438	1.931022436225555	0.03370269944201817	0	0	0	3.41022678786661	-1.025310771445497	-2.09165186490757	-0.258362660559085	-0.004509279090968526	0	0	0	0	0	0	2.319730912677202	-2.319730912677202	0.4172398810111924	10.36653448863367	89.58276014315072	0	0	2.319730912677202	-2.319730912677202	0.4172398810111924	10.36653448863367	89.58276014229382	0	0
0.08	-0.09476371120222897	0.2679527564587414	-76.28937209058333	0	0.9399999999999999	0	1.459827201855688	-1.205927144828248	-9.500195297833088	1.924265179839648	0.03358476306968267	0	0	0	3.417328193115387	-1.039309752421516	-2.095775444686192	-0.2783735100967298	-0.004858534301521614	0	0	0	0	0	0	2.437599092810101	-2.437599092810101	0.4387467654738073	10.62714415221586	89.56125325994915	0	0	2.437599092810101	-2.437599092810101	0.4387467654738073	10.62714415221586	89.56125325909632	0	0
0.1	-0.09658401042232785	0.2278500554139039	-76.28871513782831	0	0.9399999999999999	0	1.445371905182544	-1.182823964135517	-9.50916032215142	1.908565915597841	0.03331075921852253	0	0	0	3.424298394180686	-1.069114821441895	-2.08493342625445	-0.1973203390797842	-0.003443889598093872	0	0	0	0	0	0	3.121661515380431	-3.121661515380431	0.5640039004913171	13.0015728356941	89.43599613228591	0	0	3.121661515380431	-3.121661515380431	0.5640039004913171	13.0015728356941	89.43599613145652	0	0
0.12	-0.05698436034237993	0.02030990996433442	-76.29380218532336	0	0.9399999999999999	0	1.254899008586044	-1.152837145329265	-9.551823837981228	1.919617719821959	0.0335036495905192	0	0	0	3.216423006815348	-1.095498984370187	-2.1496484229423	-0.1783306781276606	-0.003112457490641914	0	0	0	0	0	0	3.12553325368095	-3.12553325368095	0.5647429466571119	13.02837162929343	89.43525708616411	0	0	3.12553325368095	-3.12553325368095	0.5647429466571119	13.02837162929343	89.43525708533481	0	0
0.14	-0.01344208572017178	-0.1285504434431722	-76.26890110595576	0	0.9399999999999999	0	1.111247942316606	-1.134882443056605	-9.555038061118758	1.897038711189311	0.03310957154804327	0	0	0	3.058396944702556	-1.106846875543488	-2.141805370656249	-0.2023562041970325	-0.003531782025076186	0	0	0	0	0	0	3.209229585364975	-3.209229585364975	0.5798446066491241	13.23848877933025	89.42015542705545	0	0	3.209229585364975	-3.209229585364975	0.5798446066491241	13.23848877933025	89.42015542622894	0	0
